<?xml version="1.0"?>
<svg xmlns="http://www.w3.org/2000/svg" xmlns:xlink="http://www.w3.org/1999/xlink" xmlns:svgjs="http://svgjs.com/svgjs" version="1.1" width="512" height="512" x="0" y="0" viewBox="0 0 512.01 512.01" style="enable-background:new 0 0 512 512" xml:space="preserve" class=""><rect width="512.01" height="512.01" rx="20" ry="20" fill="#51585a" shape="rounded"/><g transform="matrix(0.7,0,0,0.7,76.80150146484377,76.801611328125)"><g xmlns="http://www.w3.org/2000/svg"><path d="m431.005 192c0 105.32-85.68 191-191 191s-191-85.68-191-191c0-105.87 85.68-192 191-192s191 86.13 191 192z" fill="#a8bbc6" data-original="#425796" style="" class=""/><path d="m431.005 192c0 105.32-85.68 191-191 191v-383c105.32 0 191 86.13 191 192z" fill="#45525b" data-original="#283758" style="" class=""/><circle cx="240.005" cy="192" fill="#eef4ff" r="55" data-original="#eef4ff" style="" class=""/><path d="m295.005 192c0 30.33-24.67 55-55 55v-110c30.33 0 55 24.67 55 55z" fill="#d9e6fc" data-original="#d9e6fc" style="" class=""/><path d="m463.005 256v168c0 8.28-6.72 15-15 15s-15-6.72-15-15v-84.63l-130 33.62v91.01c0 8.28-6.72 15-15 15s-15-6.72-15-15v-168c0-6.88 4.68-12.88 11.36-14.55l83.64-20.91 76.36-19.09c9.45-2.36 18.64 4.79 18.64 14.55z" fill="#fe7d01" data-original="#ffe278" style="" class=""/><path d="m463.005 256v168c0 8.28-6.72 15-15 15s-15-6.72-15-15v-84.63l-65 16.81v-95.64l76.36-19.09c9.45-2.36 18.64 4.79 18.64 14.55z" fill="#ffb454" data-original="#ffb454" style="" class=""/><path d="m256.005 417c-25.916 0-47 21.084-47 47 0 12.496 4.81 24.396 13.544 33.508 18.534 19.334 48.373 19.34 66.912 0 8.734-9.111 13.544-21.012 13.544-33.508 0-25.916-21.084-47-47-47z" fill="#ffb454" data-original="#ffb454" style="" class=""/><circle cx="416.005" cy="432" fill="#ff7d47" r="47" data-original="#ff7d47" style="" class=""/></g></g></svg>
