<?xml version="1.0"?>
<svg xmlns="http://www.w3.org/2000/svg" xmlns:xlink="http://www.w3.org/1999/xlink" xmlns:svgjs="http://svgjs.com/svgjs" version="1.1" width="512" height="512" x="0" y="0" viewBox="0 0 512 512" style="enable-background:new 0 0 512 512" xml:space="preserve" class=""><g><g xmlns="http://www.w3.org/2000/svg"><path d="m256 512c-8.284 0-15-6.716-15-15v-30c0-8.284 6.716-15 15-15s15 6.716 15 15v30c0 8.284-6.716 15-15 15z" fill="#6ed9e7" data-original="#ff6c6c" style="" class=""/><path d="m316 512c-8.284 0-15-6.716-15-15v-30c0-8.284 6.716-15 15-15s15 6.716 15 15v30c0 8.284-6.716 15-15 15z" fill="#6ed9e7" data-original="#e63950" style="" class=""/><path d="m256 452v60c8.284 0 15-6.716 15-15v-30c0-8.284-6.716-15-15-15z" fill="#6ed9e7" data-original="#e63950" style="" class=""/><path d="m196 512c-8.284 0-15-6.716-15-15v-30c0-8.284 6.716-15 15-15s15 6.716 15 15v30c0 8.284-6.716 15-15 15z" fill="#6ed9e7" data-original="#ff6c6c" style="" class=""/><path d="m430.37 270.287-75-60c-4.502-3.602-10.672-4.304-15.868-1.807-5.196 2.498-8.502 7.754-8.502 13.52l15 125c0 8.284 6.716 15 15 15h60c8.284 0 15-6.716 15-15v-65c0-4.557-2.071-8.867-5.63-11.713z" fill="#6ed9e7" data-original="#e63950" style="" class=""/><path d="m172.498 208.48c-5.196-2.496-11.364-1.796-15.868 1.807l-75 60c-3.559 2.846-5.63 7.156-5.63 11.713v65c0 8.284 6.716 15 15 15h60c8.284 0 15-6.716 15-15l15-125c0-5.766-3.306-11.022-8.502-13.52z" fill="#6ed9e7" data-original="#ff6c6c" style="" class=""/><path d="m321 332h-130c-8.284 0-15 6.716-15 15v60c0 8.284 6.716 15 15 15h130c8.284 0 15-6.716 15-15v-60c0-8.284-6.716-15-15-15z" fill="#9670f3" data-original="#7c83e7" style="" class=""/><path d="m321 332h-65v90h65c8.284 0 15-6.716 15-15v-60c0-8.284-6.716-15-15-15z" fill="#9670f3" data-original="#5f69e2" style="" class=""/><path d="m310.462 30.236c-24.09-19.584-48.105-28.865-49.115-29.25-3.443-1.314-7.25-1.314-10.693 0-1.01.385-25.025 9.666-49.115 29.25-33.063 26.878-50.539 60.339-50.539 96.764v235h210v-235c0-36.425-17.476-69.886-50.538-96.764z" fill="#f0f7ff" data-original="#f0f7ff" style="" class=""/><path d="m310.462 30.236c-24.09-19.584-48.105-28.865-49.115-29.25-1.722-.657-3.534-.986-5.347-.986v362h105v-235c0-36.425-17.476-69.886-50.538-96.764z" fill="#dfe7f4" data-original="#dfe7f4" style="" class=""/><circle cx="256" cy="192" fill="#9670f3" r="45" data-original="#7c83e7" style="" class=""/><path d="m256 147v90c24.814 0 45-20.187 45-45s-20.186-45-45-45z" fill="#9670f3" data-original="#5f69e2" style="" class=""/></g></g></svg>
